<?xml version="1.0" encoding="UTF-8"?><svg id="Layer_1" xmlns="http://www.w3.org/2000/svg" xmlns:xlink="http://www.w3.org/1999/xlink" viewBox="0 0 351.47 527.5"><defs><style>.cls-1{clip-path:url(#clippath);}.cls-2,.cls-3,.cls-4,.cls-5,.cls-6,.cls-7,.cls-8,.cls-9{fill:none;}.cls-2,.cls-10,.cls-11,.cls-12,.cls-13,.cls-14{stroke-width:0px;}.cls-15{clip-path:url(#clippath-1);}.cls-16{clip-path:url(#clippath-2);}.cls-3{stroke:#000;}.cls-3,.cls-4{stroke-width:.75px;}.cls-3,.cls-4,.cls-5,.cls-6,.cls-7,.cls-8,.cls-9{stroke-miterlimit:10;}.cls-4,.cls-9{stroke:#5bc0be;}.cls-17{font-family:CambayDevanagari-Regular, 'Cambay Devanagari';font-size:16.76px;}.cls-5{stroke-width:2px;}.cls-5,.cls-6,.cls-7{stroke:#333;}.cls-6{stroke-width:.2px;}.cls-8{stroke:#666;}.cls-11{fill:#151616;}.cls-12{fill:#231f20;}.cls-13{fill:#666;}.cls-14{fill:#333;}</style><clipPath id="clippath"><rect class="cls-2" x="265.19" y="334.8" width="36.43" height="50.27"/></clipPath><clipPath id="clippath-1"><rect class="cls-2" x="87.13" y="433.66" width="115.62" height="93.84"/></clipPath><clipPath id="clippath-2"><rect class="cls-2" x="133.33" y="254.36" width="24.18" height="23.46"/></clipPath></defs><line class="cls-8" x1="101.38" y1="87.64" x2="101.38" y2="113.36"/><polygon class="cls-13" points="97.29 110.05 98.02 109.37 101.37 112.98 104.73 109.37 105.46 110.05 101.37 114.45 97.29 110.05"/><line class="cls-8" x1="99.7" y1="182.31" x2="99.7" y2="218.93"/><polygon class="cls-13" points="95.61 215.62 96.34 214.93 99.7 218.55 103.06 214.93 103.79 215.62 99.7 220.01 95.61 215.62"/><line class="cls-8" x1="99.7" y1="299.61" x2="99.7" y2="344.6"/><polygon class="cls-13" points="95.61 341.29 96.34 340.61 99.7 344.22 103.06 340.61 103.79 341.29 99.7 345.69 95.61 341.29"/><line class="cls-8" x1="99.7" y1="421.09" x2="99.7" y2="447.66"/><polygon class="cls-13" points="95.61 444.35 96.34 443.66 99.7 447.27 103.06 443.66 103.79 444.35 99.7 448.74 95.61 444.35"/><path class="cls-14" d="m269.23,437.94c0,.41.3.75.68.75h25.66c.37,0,.67-.34.68-.75v-4.49h-27.01v4.49Z"/><polygon class="cls-14" points="289.49 397.22 289.49 403.53 295.82 403.53 289.49 397.22"/><path class="cls-14" d="m290.16,423.23v3.99c0,.14-.1.25-.22.25h-2.03v-4.49h2.03c.12,0,.22.11.22.25Z"/><path class="cls-14" d="m283.63,422.98h-1.8c-.12,0-.23.11-.23.25v1.25h2.26v-1.25c0-.14-.1-.25-.23-.25Zm0,0h-1.8c-.12,0-.23.11-.23.25v1.25h2.26v-1.25c0-.14-.1-.25-.23-.25Zm0,0h-1.8c-.12,0-.23.11-.23.25v1.25h2.26v-1.25c0-.14-.1-.25-.23-.25Zm0,0h-1.8c-.12,0-.23.11-.23.25v1.25h2.26v-1.25c0-.14-.1-.25-.23-.25Zm0,0h-1.8c-.12,0-.23.11-.23.25v1.25h2.26v-1.25c0-.14-.1-.25-.23-.25Zm0,0h-1.8c-.12,0-.23.11-.23.25v1.25h2.26v-1.25c0-.14-.1-.25-.23-.25Zm0,0h-1.8c-.12,0-.23.11-.23.25v1.25h2.26v-1.25c0-.14-.1-.25-.23-.25Zm0,0h-1.8c-.12,0-.23.11-.23.25v1.25h2.26v-1.25c0-.14-.1-.25-.23-.25Zm0,0h-1.8c-.12,0-.23.11-.23.25v1.25h2.26v-1.25c0-.14-.1-.25-.23-.25Zm0,0h-1.8c-.12,0-.23.11-.23.25v1.25h2.26v-1.25c0-.14-.1-.25-.23-.25Zm0,0h-1.8c-.12,0-.23.11-.23.25v1.25h2.26v-1.25c0-.14-.1-.25-.23-.25Zm0,0h-1.8c-.12,0-.23.11-.23.25v1.25h2.26v-1.25c0-.14-.1-.25-.23-.25Zm0,0h-1.8c-.12,0-.23.11-.23.25v1.25h2.26v-1.25c0-.14-.1-.25-.23-.25Zm0,0h-1.8c-.12,0-.23.11-.23.25v1.25h2.26v-1.25c0-.14-.1-.25-.23-.25Zm0,0h-1.8c-.12,0-.23.11-.23.25v1.25h2.26v-1.25c0-.14-.1-.25-.23-.25Zm0,0h-1.8c-.12,0-.23.11-.23.25v1.25h2.26v-1.25c0-.14-.1-.25-.23-.25Zm0,0h-1.8c-.12,0-.23.11-.23.25v1.25h2.26v-1.25c0-.14-.1-.25-.23-.25Zm0,0h-1.8c-.12,0-.23.11-.23.25v1.25h2.26v-1.25c0-.14-.1-.25-.23-.25Zm0,0h-1.8c-.12,0-.23.11-.23.25v1.25h2.26v-1.25c0-.14-.1-.25-.23-.25Zm0,0h-1.8c-.12,0-.23.11-.23.25v1.25h2.26v-1.25c0-.14-.1-.25-.23-.25Zm0,0h-1.8c-.12,0-.23.11-.23.25v1.25h2.26v-1.25c0-.14-.1-.25-.23-.25Zm0,0h-1.8c-.12,0-.23.11-.23.25v1.25h2.26v-1.25c0-.14-.1-.25-.23-.25Zm0,0h-1.8c-.12,0-.23.11-.23.25v1.25h2.26v-1.25c0-.14-.1-.25-.23-.25Zm0,0h-1.8c-.12,0-.23.11-.23.25v1.25h2.26v-1.25c0-.14-.1-.25-.23-.25Zm13.96-4.49h-29.71c-.37,0-.67.34-.68.75v11.97c0,.41.3.75.68.75h29.71c.37,0,.67-.34.68-.75v-11.97c0-.41-.3-.75-.68-.75Zm-22.06,8.98h1.8c.12,0,.22-.11.22-.25,0-.41.31-.74.69-.73.36,0,.66.33.66.73,0,.96-.7,1.74-1.57,1.74h-1.8c-.87,0-1.57-.78-1.57-1.74v-3.99c0-.96.71-1.74,1.57-1.74h1.8c.87,0,1.57.78,1.57,1.74,0,.41-.3.75-.68.75s-.68-.33-.68-.75c0-.14-.1-.25-.22-.25h-1.8c-.12,0-.22.11-.22.25v3.99c0,.14.1.25.22.25Zm9.68.75c0,.41-.31.74-.69.73-.36,0-.66-.33-.66-.73v-2.24h-2.26v2.24c0,.41-.3.75-.68.75s-.68-.33-.68-.75v-4.99c0-.96.71-1.74,1.58-1.74h1.8c.87,0,1.58.78,1.58,1.74v4.99Zm6.3-.99c0,.96-.71,1.74-1.57,1.74h-2.7c-.37,0-.67-.33-.68-.74,0,0,0,0,0,0v-5.98c0-.41.3-.75.67-.75,0,0,0,0,0,0h2.7c.87,0,1.57.78,1.57,1.74v3.99Zm-7.88-4.24h-1.8c-.12,0-.23.11-.23.25v1.25h2.26v-1.25c0-.14-.1-.25-.23-.25Zm0,0h-1.8c-.12,0-.23.11-.23.25v1.25h2.26v-1.25c0-.14-.1-.25-.23-.25Zm0,0h-1.8c-.12,0-.23.11-.23.25v1.25h2.26v-1.25c0-.14-.1-.25-.23-.25Zm0,0h-1.8c-.12,0-.23.11-.23.25v1.25h2.26v-1.25c0-.14-.1-.25-.23-.25Zm0,0h-1.8c-.12,0-.23.11-.23.25v1.25h2.26v-1.25c0-.14-.1-.25-.23-.25Zm0,0h-1.8c-.12,0-.23.11-.23.25v1.25h2.26v-1.25c0-.14-.1-.25-.23-.25Zm0,0h-1.8c-.12,0-.23.11-.23.25v1.25h2.26v-1.25c0-.14-.1-.25-.23-.25Zm0,0h-1.8c-.12,0-.23.11-.23.25v1.25h2.26v-1.25c0-.14-.1-.25-.23-.25Zm0,0h-1.8c-.12,0-.23.11-.23.25v1.25h2.26v-1.25c0-.14-.1-.25-.23-.25Zm0,0h-1.8c-.12,0-.23.11-.23.25v1.25h2.26v-1.25c0-.14-.1-.25-.23-.25Zm0,0h-1.8c-.12,0-.23.11-.23.25v1.25h2.26v-1.25c0-.14-.1-.25-.23-.25Zm0,0h-1.8c-.12,0-.23.11-.23.25v1.25h2.26v-1.25c0-.14-.1-.25-.23-.25Zm0,0h-1.8c-.12,0-.23.11-.23.25v1.25h2.26v-1.25c0-.14-.1-.25-.23-.25Zm0,0h-1.8c-.12,0-.23.11-.23.25v1.25h2.26v-1.25c0-.14-.1-.25-.23-.25Zm0,0h-1.8c-.12,0-.23.11-.23.25v1.25h2.26v-1.25c0-.14-.1-.25-.23-.25Zm0,0h-1.8c-.12,0-.23.11-.23.25v1.25h2.26v-1.25c0-.14-.1-.25-.23-.25Zm0,0h-1.8c-.12,0-.23.11-.23.25v1.25h2.26v-1.25c0-.14-.1-.25-.23-.25Zm0,0h-1.8c-.12,0-.23.11-.23.25v1.25h2.26v-1.25c0-.14-.1-.25-.23-.25Zm0,0h-1.8c-.12,0-.23.11-.23.25v1.25h2.26v-1.25c0-.14-.1-.25-.23-.25Zm0,0h-1.8c-.12,0-.23.11-.23.25v1.25h2.26v-1.25c0-.14-.1-.25-.23-.25Zm0,0h-1.8c-.12,0-.23.11-.23.25v1.25h2.26v-1.25c0-.14-.1-.25-.23-.25Zm0,0h-1.8c-.12,0-.23.11-.23.25v1.25h2.26v-1.25c0-.14-.1-.25-.23-.25Zm0,0h-1.8c-.12,0-.23.11-.23.25v1.25h2.26v-1.25c0-.14-.1-.25-.23-.25Zm0,0h-1.8c-.12,0-.23.11-.23.25v1.25h2.26v-1.25c0-.14-.1-.25-.23-.25Zm0,0h-1.8c-.12,0-.23.11-.23.25v1.25h2.26v-1.25c0-.14-.1-.25-.23-.25Z"/><path class="cls-14" d="m296.24,405.03h-7.43c-.37,0-.67-.34-.68-.75v-7.48h-18.23c-.37,0-.67.34-.68.75v19.45h27.01v-11.97Z"/><g class="cls-1"><path class="cls-11" d="m289.15,361.49h-15.02c-1.51,0-2.75-1.51-2.75-3.36v-1.3c0-.29.19-.53.43-.53h19.63c.24,0,.43.24.43.53v1.3c0,1.85-1.22,3.36-2.73,3.36m-16.9-4.13v.77c0,1.27.84,2.3,1.88,2.3h15.02c1.03,0,1.86-1.03,1.86-2.3v-.77h-18.76Z"/><path class="cls-11" d="m295.3,342.37h-27.35c-1.16,0-2.1-1.17-2.1-2.61v-2.36c0-1.44.94-2.61,2.1-2.61h27.35c1.17,0,2.12,1.17,2.12,2.61v2.36c0,1.44-.95,2.61-2.12,2.61m-27.35-6.51c-.68,0-1.23.69-1.23,1.55v2.36c0,.85.55,1.55,1.23,1.55h27.35c.69,0,1.25-.69,1.25-1.55v-2.36c0-.85-.56-1.55-1.25-1.55h-27.35Z"/><path class="cls-11" d="m294.42,377.37h-25.57c-.24,0-.43-.24-.43-.53v-35c0-.29.19-.53.43-.53h2.96c.24,0,.43.24.43.53v16.28c0,1.27.84,2.3,1.88,2.3h15.02c1.03,0,1.86-1.03,1.86-2.3v-16.28c0-.29.19-.53.43-.53h2.98c.24,0,.43.24.43.53v35c0,.29-.19.53-.43.53m-25.13-1.06h24.7v-33.94h-2.11v15.75c0,1.85-1.22,3.36-2.73,3.36h-15.02c-1.51,0-2.75-1.51-2.75-3.36v-15.75h-2.09v33.94Z"/><path class="cls-11" d="m295.97,385.07h-28.66c-1.17,0-2.12-1.17-2.12-2.61v-3.54c0-1.44.95-2.61,2.12-2.61h28.66c1.17,0,2.12,1.17,2.12,2.61v3.54c0,1.44-.95,2.61-2.12,2.61m-28.66-7.69c-.69,0-1.25.69-1.25,1.55v3.54c0,.85.56,1.55,1.25,1.55h28.66c.68,0,1.25-.71,1.25-1.55v-3.54c0-.84-.57-1.55-1.25-1.55h-28.66Z"/><path class="cls-11" d="m295.97,385.07h-28.66c-1.17,0-2.12-1.17-2.12-2.61v-1.09c0-.29.19-.53.43-.53h32.03c.24,0,.43.24.43.53v1.09c0,1.44-.95,2.61-2.12,2.61m-29.91-3.16v.55c0,.85.56,1.55,1.25,1.55h28.66c.68,0,1.25-.71,1.25-1.55v-.55h-31.16Z"/><path class="cls-11" d="m290.08,374.87c-.68,0-1.24-.69-1.24-1.55v-6.84c0-.84.55-1.52,1.24-1.52s1.26.68,1.26,1.52v6.84c0,.85-.56,1.55-1.26,1.55m0-8.85c-.2,0-.37.21-.37.46v6.84c0,.27.17.48.37.48.22,0,.39-.21.39-.48v-6.84c0-.25-.17-.46-.39-.46m-3.38,8.85c-.68,0-1.24-.69-1.24-1.55v-6.84c0-.84.55-1.52,1.24-1.52s1.26.68,1.26,1.52v6.84c0,.87-.55,1.55-1.26,1.55m0-8.85c-.2,0-.37.21-.37.46v6.84c0,.27.17.48.37.48.22,0,.39-.21.39-.48v-6.84c0-.25-.17-.46-.39-.46m-3.38,8.85c-.68,0-1.24-.69-1.24-1.55v-6.84c0-.84.55-1.52,1.24-1.52s1.26.68,1.26,1.52v6.84c0,.87-.55,1.55-1.26,1.55m0-8.85c-.2,0-.37.21-.37.46v6.84c0,.27.16.48.37.48.22,0,.39-.21.39-.48v-6.84c0-.25-.17-.46-.39-.46m-3.38,8.85c-.68,0-1.24-.69-1.24-1.55v-6.84c0-.84.55-1.52,1.24-1.52s1.26.68,1.26,1.52v6.84c0,.87-.55,1.55-1.26,1.55m0-8.85c-.2,0-.37.21-.37.46v6.84c0,.27.17.48.37.48.22,0,.39-.21.39-.48v-6.84c0-.25-.17-.46-.39-.46m-3.38,8.85c-.68,0-1.24-.69-1.24-1.55v-6.84c0-.84.55-1.52,1.24-1.52s1.26.68,1.26,1.52v6.84c0,.85-.56,1.55-1.26,1.55m0-8.85c-.2,0-.37.21-.37.46v6.84c0,.27.17.48.37.48.22,0,.39-.21.39-.48v-6.84c0-.25-.17-.46-.39-.46m-3.38,8.85c-.68,0-1.24-.69-1.24-1.55v-6.84c0-.84.55-1.52,1.24-1.52s1.24.68,1.24,1.52v6.84c0,.85-.55,1.55-1.24,1.55m0-8.85c-.2,0-.37.21-.37.46v6.84c0,.27.17.48.37.48s.37-.22.37-.48v-6.84c0-.25-.17-.46-.37-.46"/><path class="cls-11" d="m299.43,362.81h-5.01c-.24,0-.43-.24-.43-.53v-16.5c0-.29.19-.53.43-.53h5.01c1.21,0,2.19,1.21,2.19,2.7v12.15c0,1.49-.98,2.7-2.19,2.7m-4.57-1.06h4.57c.73,0,1.32-.74,1.32-1.64v-12.15c0-.9-.59-1.64-1.32-1.64h-4.57v15.44Z"/><path class="cls-11" d="m298.97,355.12h-2.35c-.66,0-1.2-.66-1.2-1.48v-4.96c0-.81.54-1.47,1.2-1.47h2.35c.67,0,1.22.66,1.22,1.47v4.96c0,.81-.55,1.48-1.22,1.48m-2.35-6.84c-.18,0-.33.19-.33.41v4.96c0,.23.15.41.33.41h2.35c.2,0,.35-.18.35-.41v-4.96c0-.23-.15-.41-.35-.41h-2.35Z"/><path class="cls-11" d="m291.44,346.43h-1.87c-.24,0-.43-.24-.43-.53v-1.01c0-.14-.03-.3-.09-.41-.08-.16-.09-.37-.01-.54.08-.17.22-.27.38-.27h2.03c.24,0,.43.24.43.53v1.7c0,.29-.19.53-.43.53m-1.44-1.06h1v-.64h-1.01c0,.05,0,.1,0,.15v.48Zm-5.38,1.06h-12.8c-.24,0-.43-.24-.43-.53v-1.7c0-.29.19-.53.43-.53h12.96c.16,0,.3.1.38.27.08.17.07.37-.01.54-.05.1-.09.27-.09.41v1.01c0,.29-.19.53-.43.53m-12.37-1.06h11.93v-.48c0-.05,0-.1,0-.15h-11.94v.64Z"/><path class="cls-11" d="m288.38,349.78h-2.58c-.89,0-1.62-.88-1.62-1.97v-2.93c0-1.09.73-1.97,1.62-1.97h2.58c.89,0,1.62.88,1.62,1.97v2.93c0,1.09-.73,1.97-1.62,1.97m-2.58-5.81c-.41,0-.75.41-.75.91v2.93c0,.5.34.91.75.91h2.58c.41,0,.75-.41.75-.91v-2.93c0-.5-.34-.91-.75-.91h-2.58Z"/><path class="cls-11" d="m287.58,352.45h-.97c-.45,0-.82-.45-.82-1v-2.19c0-.29.19-.53.43-.53h1.74c.24,0,.43.24.43.53v2.19c0,.55-.37,1-.82,1m-.92-1.06h.92l-.04-1.6h-.88v1.6Z"/></g><path class="cls-10" d="m162.56,25.04c-4.53-2.54-10.54-3.94-16.93-3.94s-12.4,1.4-16.93,3.94c-4.63,2.6-7.18,6.1-7.18,9.84,0,2.5,1.17,4.95,3.38,7.07,2.05,1.97,4.96,3.63,8.43,4.8.54,1.03.94,2.13,1.19,3.28v.02c1.28,5.87,4.28,11.2,8.62,15.26-3.64.59-7.35-.56-10.06-3.12l-1.02-.96c2.07-2.3,2.76-4.91,1.79-6.92-.75-1.55-2.36-2.52-4.53-2.75-2.08-.22-4.45.28-6.68,1.41-2.23,1.12-4.06,2.75-5.15,4.57-1.14,1.9-1.36,3.8-.61,5.35.75,1.55,2.36,2.52,4.53,2.75.32.03.65.05.97.05,1.8,0,3.75-.49,5.61-1.41.35.2.68.43.98.68l.54.45c4.68,3.88,11.08,4.78,16.61,2.34,1.74,1.24,3.61,2.28,5.57,3.1l1.46.61c.42.18.87.27,1.33.27,1.95,0,3.53-1.61,3.54-3.6,0-1.24-.62-2.4-1.65-3.06l-1.64-1.05c-4.09-2.63-5.71-7.91-3.8-12.45.55-1.31,1.31-2.52,2.24-3.57,9.92-1.85,16.58-7.1,16.58-13.11,0-3.75-2.55-7.24-7.18-9.84Zm-34.82,17.8c-.69-.67-1.3-1.42-1.82-2.22,2.59.78,4.85,2.4,6.46,4.62-1.63-.62-3.18-1.43-4.64-2.4Zm-9.88,19.56c-.58-1.19-.38-2.71.56-4.27.99-1.64,2.66-3.12,4.7-4.15,2.05-1.03,4.21-1.49,6.09-1.3,1.24.13,2.25.53,2.94,1.17-.71-.36-1.59-.54-2.6-.52-1.75.04-3.73.68-5.56,1.8-3.94,2.41-5.93,6.18-4.52,8.59.08.13.17.26.26.38-.87-.37-1.51-.95-1.87-1.69Zm19.93,5.48c-2.78-.36-5.41-1.51-7.59-3.32l-.54-.45c-2.07-1.71-4.82-2.31-7.39-1.59-.29.08-.46.39-.38.68.08.3.38.47.67.39,1.34-.37,2.75-.34,4.07.09-2.76,1.11-5.37.93-6.23-.53-1.06-1.81.84-5.04,4.14-7.06,1.67-1.02,3.46-1.6,5.03-1.64,1.46-.03,2.53.41,3.02,1.25.69,1.17.16,2.98-1.34,4.71-.83-1.11-.96-2.61-.36-3.86.13-.27.03-.61-.24-.75s-.6-.03-.73.25h0c-.92,1.91-.51,4.21,1.02,5.65l1.4,1.32c3.18,3,7.61,4.21,11.83,3.23.3.25.6.5.91.74-2.32.91-4.83,1.21-7.3.89h0Zm16.91-21.34c.45-.37.93-.7,1.43-1,1.79-1.08,3.82-1.69,5.9-1.77-2.1,1.17-4.6,2.12-7.33,2.78Zm9.32-4.29c-.12.15-.25.3-.37.45-5.87-.49-11.4,2.91-13.72,8.44-2.12,5.04-.32,10.9,4.22,13.82l1.64,1.05c1.14.73,1.49,2.27.77,3.44-.63,1.03-1.89,1.44-2.99.98l-1.46-.61c-8.39-3.5-14.56-10.97-16.52-20.01v-.02c-1.15-5.31-5.24-9.43-10.45-10.53-.37-.73-.61-1.38-.61-1.81,0-1.5,1.32-2.74,2.72-4.04.35-.33.71-.66,1.05-1.01.49-.51.94-1.06,1.35-1.63.91-1.2,1.86-2.43,3.26-3.05.97-.43,2.2-.4,3.5-.37,1.02.02,2.08.05,3.12-.15.93-.17,1.85-.57,2.74-.96,1.18-.51,2.4-1.04,3.63-1.04s2.45.53,3.63,1.04c.89.39,1.81.78,2.74.96,1.04.19,2.1.17,3.12.15,1.3-.03,2.52-.06,3.5.37,1.4.61,2.35,1.85,3.26,3.05.42.57.87,1.12,1.35,1.63.21.21.41.41.61.6,1.47,1.45,2.64,2.59,2.64,4.27,0,1.71-1.32,3.29-2.72,4.95h0Zm3.62-3.63c.13-.43.19-.88.19-1.32,0-2.15-1.44-3.57-2.97-5.07-.2-.19-.4-.39-.6-.59-.45-.48-.87-.99-1.26-1.52-.95-1.25-2.03-2.66-3.69-3.38-1.19-.52-2.59-.49-3.95-.46-.97.02-1.97.04-2.91-.13-.81-.15-1.63-.51-2.51-.89-1.28-.55-2.6-1.13-4.05-1.13s-2.77.57-4.06,1.13c-.87.38-1.7.74-2.51.89-.93.17-1.94.15-2.91.13-1.36-.03-2.76-.06-3.95.46-1.66.73-2.74,2.14-3.69,3.38-.39.53-.81,1.04-1.26,1.52-.33.33-.68.66-1.02.98-1.51,1.41-3.07,2.87-3.07,4.86.02.43.1.85.26,1.24-.71-1.23-1.09-2.52-1.09-3.82,0-3.32,2.35-6.47,6.62-8.87,4.37-2.45,10.2-3.81,16.4-3.81s12.03,1.35,16.4,3.81c4.27,2.4,6.62,5.55,6.62,8.87-.01,1.31-.36,2.6-1.02,3.72h0Z"/><text class="cls-17" transform="translate(45.83 41.29)"><tspan x="0" y="0">Oyster </tspan><tspan x="-14.02" y="20.11">mushrooms</tspan></text><rect class="cls-9" x="3.01" y=".5" width="196.05" height="87.14" rx="17.32" ry="17.32"/><rect class="cls-9" x="3.01" y="114.45" width="196.05" height="67.03" rx="15.19" ry="15.19"/><rect class="cls-9" x="3.01" y="220.01" width="196.05" height="78.76" rx="16.46" ry="16.46"/><rect class="cls-9" x="227.05" y="211.64" width="112.27" height="48.59" rx=".1" ry=".1"/><rect class="cls-9" x="3.01" y="345.69" width="196.05" height="75.41" rx="16.11" ry="16.11"/><line class="cls-8" x1="227.05" y1="240.12" x2="199.04" y2="254.95"/><polygon class="cls-13" points="199.55 252.37 200.02 252.53 199.21 254.86 201.59 255.5 201.46 255.98 198.56 255.2 199.55 252.37"/><line class="cls-8" x1="228.73" y1="302.12" x2="198.98" y2="277.33"/><polygon class="cls-13" points="201.56 276.82 201.59 277.32 199.13 277.46 199.44 279.9 198.95 279.96 198.57 276.99 201.56 276.82"/><line class="cls-8" x1="265.59" y1="360.77" x2="199.1" y2="370.74"/><polygon class="cls-13" points="200.44 368.48 200.83 368.79 199.29 370.71 201.33 372.11 201.04 372.52 198.56 370.82 200.44 368.48"/><line class="cls-8" x1="263.92" y1="416.07" x2="199.07" y2="391.13"/><polygon class="cls-13" points="201.35 389.81 201.54 390.28 199.25 391.2 200.33 393.41 199.88 393.63 198.57 390.93 201.35 389.81"/><path class="cls-10" d="m168.72,252.53c-1.12-3.33-1.71-6.82-1.76-10.38h1.06c.25,0,.45-.23.45-.51v-6.87c0-.28-.2-.51-.45-.51h-45.24c-.25,0-.45.23-.45.51v6.87c0,.28.2.51.45.51h1.06c-.05,3.56-.64,7.05-1.76,10.38l-1.28,3.82c-2.32,6.9-3.49,14.14-3.49,21.52v6.15c0,.28.2.51.45.51h55.3c.25,0,.45-.23.45-.51v-6.15c0-7.38-1.17-14.62-3.49-21.52l-1.28-3.82Zm-1.15-17.25v2.41h-44.35v-2.41h44.35Zm-44.35,3.44h44.35v2.41h-44.35v-2.41Zm49.38,44.78h-54.41v-5.63c0-7.26,1.15-14.37,3.43-21.15l1.28-3.82c1.16-3.45,1.77-7.06,1.82-10.75h2.12c-.03,2.29-.29,4.58-.78,6.81-.06.27.09.55.32.62.04.01.07.02.11.02.2,0,.38-.16.43-.39.5-2.31.77-4.68.81-7.06h35.31c.03,2.38.3,4.75.81,7.06.05.23.23.39.43.39.04,0,.07,0,.11-.02.24-.07.38-.35.32-.62-.48-2.23-.74-4.51-.78-6.81h2.12c.05,3.69.66,7.3,1.82,10.75l1.28,3.82c2.28,6.78,3.43,13.89,3.43,21.15v5.63Z"/><g class="cls-15"><path class="cls-12" d="m136.41,467.43c0-.44-.44-.79-.98-.79s-.98.35-.98.79c0,.9-.35,1.32-.8,1.85-.51.6-1.15,1.35-1.15,2.75s.64,2.15,1.15,2.75c.45.53.8.95.8,1.85s-.35,1.32-.8,1.85c-.51.6-1.15,1.35-1.15,2.75s.64,2.15,1.15,2.75c.45.53.8.95.8,1.85s-.35,1.32-.8,1.85c-.51.6-1.15,1.35-1.15,2.75,0,.44.44.79.98.79s.98-.35.98-.79c0-.9.35-1.32.8-1.85.51-.6,1.15-1.35,1.15-2.75s-.64-2.15-1.15-2.75c-.45-.53-.8-.95-.8-1.85s.35-1.32.8-1.85c.51-.6,1.15-1.35,1.15-2.75s-.64-2.15-1.15-2.75c-.45-.53-.8-.95-.8-1.85s.35-1.32.8-1.85c.51-.6,1.15-1.35,1.15-2.75"/><path class="cls-12" d="m143.59,467.43c0-.44-.44-.79-.98-.79s-.98.35-.98.79c0,.9-.35,1.32-.8,1.85-.51.6-1.15,1.35-1.15,2.75s.64,2.15,1.15,2.75c.45.53.8.95.8,1.85s-.35,1.32-.8,1.85c-.51.6-1.15,1.35-1.15,2.75s.64,2.15,1.15,2.75c.45.53.8.95.8,1.85s-.35,1.32-.8,1.85c-.51.6-1.15,1.35-1.15,2.75,0,.44.44.79.98.79s.98-.35.98-.79c0-.9.35-1.32.8-1.85.51-.6,1.15-1.35,1.15-2.75s-.64-2.15-1.15-2.75c-.45-.53-.8-.95-.8-1.85s.35-1.32.8-1.85c.51-.6,1.15-1.35,1.15-2.75s-.64-2.15-1.15-2.75c-.45-.53-.8-.95-.8-1.85s.35-1.32.8-1.85c.51-.6,1.15-1.35,1.15-2.75"/><path class="cls-12" d="m150.77,467.43c0-.44-.44-.79-.98-.79s-.98.35-.98.79c0,.9-.35,1.32-.8,1.85-.51.6-1.15,1.35-1.15,2.75s.64,2.15,1.15,2.75c.45.53.8.95.8,1.85s-.35,1.32-.8,1.85c-.51.6-1.15,1.35-1.15,2.75s.64,2.15,1.15,2.75c.45.53.8.95.8,1.85s-.35,1.32-.8,1.85c-.51.6-1.15,1.35-1.15,2.75,0,.44.44.79.98.79s.98-.35.98-.79c0-.9.35-1.32.8-1.85.51-.6,1.15-1.35,1.15-2.75s-.64-2.15-1.15-2.75c-.45-.53-.8-.95-.8-1.85s.35-1.32.8-1.85c.51-.6,1.15-1.35,1.15-2.75s-.64-2.15-1.15-2.75c-.45-.53-.8-.95-.8-1.85s.35-1.32.8-1.85c.51-.6,1.15-1.35,1.15-2.75"/><path class="cls-12" d="m157.95,467.43c0-.44-.44-.79-.98-.79s-.98.35-.98.79c0,.9-.35,1.32-.8,1.85-.51.6-1.15,1.35-1.15,2.75s.64,2.15,1.15,2.75c.45.53.8.95.8,1.85s-.35,1.32-.8,1.85c-.51.6-1.15,1.35-1.15,2.75s.64,2.15,1.15,2.75c.45.53.8.95.8,1.85s-.35,1.32-.8,1.85c-.51.6-1.15,1.35-1.15,2.75,0,.44.44.79.98.79s.98-.35.98-.79c0-.9.35-1.32.8-1.85.51-.6,1.15-1.35,1.15-2.75s-.64-2.15-1.15-2.75c-.45-.53-.8-.95-.8-1.85s.35-1.32.8-1.85c.51-.6,1.15-1.35,1.15-2.75s-.64-2.15-1.15-2.75c-.45-.53-.8-.95-.8-1.85s.35-1.32.8-1.85c.51-.6,1.15-1.35,1.15-2.75"/></g><line class="cls-5" x1="159.19" y1="495.66" x2="130.7" y2="495.66"/><path class="cls-7" d="m290.73,233.42c2.69-4,5.05-4.92,6.7-5.03,3.18-.21,4.27,2.57,10.05,5.03,3.4,1.45,6.81,2.9,10.05,1.68,3.47-1.31,3.77-4.55,6.7-5.03,2.49-.41,4.92,1.49,6.7,3.35"/><path class="cls-7" d="m290.73,223.36c2.64,6.71,4.96,8.32,6.7,8.38,2.87.09,3.82-4.07,8.38-5.03,2.84-.6,5.3.41,8.38,1.68,5.84,2.4,6.94,5.19,10.05,5.03,1.65-.08,3.99-1,6.7-5.03"/><path class="cls-7" d="m291.35,245.99c2.69-4,5.05-4.92,6.7-5.03,3.18-.21,4.27,2.57,10.05,5.03,3.4,1.45,6.81,2.9,10.05,1.68,3.47-1.31,3.77-4.55,6.7-5.03,2.49-.41,4.92,1.49,6.7,3.35"/><path class="cls-7" d="m291.35,232.59c2.64,6.71,4.96,8.32,6.7,8.38,2.87.09,3.82-4.07,8.38-5.03,2.84-.6,5.3.41,8.38,1.68,5.84,2.4,6.94,5.19,10.05,5.03,1.65-.08,3.99-1,6.7-5.03"/><path class="cls-7" d="m300.78,288.72c-.06.17-.4,1.13,0,1.68,1.02,1.4,6.59-.1,6.7-1.68.06-.83-1.39-1.53-1.68-1.68-.09-.05-1.7-.8-3.35,0-.36.17-1.3.63-1.68,1.68Z"/><path class="cls-7" d="m300.78,298.77c.81,1.45,4.3,1.47,5.03,0,.47-.95-.08-2.82-1.68-3.35-1.51-.5-2.91.53-3.35,1.68-.07.18-.38,1,0,1.68Z"/><path class="cls-7" d="m309.31,295.42c1.33.75,4.04-.55,4.04-1.68s-2.71-2.43-4.04-1.68c-1.14.64-1.14,2.71,0,3.35Z"/><path class="cls-7" d="m314.19,298.77c.66,1.03,2.69,1.03,3.35,0,.31-.49.31-1.19,0-1.68-.66-1.03-2.69-1.03-3.35,0-.31.49-.31,1.19,0,1.68Z"/><path class="cls-7" d="m316.86,290.39c.75-.03.86.2,1.07,0,.53-.5.66-2.69,0-3.35-.38-.38-.88-.11-1.07,0-.76.41-1.03,1.51-1.07,1.68-.03.13-.3,1.25,0,1.68.17.24.38.03,1.07,0Z"/><circle class="cls-6" cx="318.38" cy="292.91" r=".84"/><circle class="cls-6" cx="310.84" cy="300.45" r=".84"/><circle class="cls-6" cx="304.13" cy="293.74" r=".84"/><circle class="cls-6" cx="309.16" cy="285.36" r=".84"/><circle class="cls-6" cx="314.19" cy="283.69" r=".84"/><circle class="cls-6" cx="315.86" cy="293.74" r=".84"/><circle class="cls-6" cx="314.19" cy="292.07" r=".84"/><circle class="cls-6" cx="312.51" cy="290.39" r=".84"/><circle class="cls-6" cx="304.13" cy="283.69" r=".84"/><circle class="cls-6" cx="307.48" cy="283.69" r=".84"/><circle class="cls-6" cx="310.84" cy="283.69" r=".84"/><circle class="cls-6" cx="314.19" cy="287.04" r=".84"/><circle class="cls-6" cx="317.54" cy="285.36" r=".84"/><circle class="cls-6" cx="320.89" cy="295.42" r=".84"/><circle class="cls-6" cx="310.84" cy="297.09" r=".84"/><circle class="cls-6" cx="309.16" cy="300.45" r=".84"/><circle class="cls-6" cx="307.48" cy="298.77" r=".84"/><circle class="cls-6" cx="307.48" cy="295.42" r=".84"/><circle class="cls-6" cx="307.48" cy="293.74" r=".84"/><circle class="cls-6" cx="307.48" cy="292.07" r=".84"/><circle class="cls-6" cx="319.21" cy="300.45" r=".84"/><circle class="cls-6" cx="310.84" cy="288.72" r=".84"/><circle class="cls-6" cx="308.64" cy="288.26" r=".84"/><circle class="cls-6" cx="309.16" cy="290.39" r=".84"/><circle class="cls-6" cx="312.51" cy="285.36" r=".84"/><rect class="cls-7" x="115.62" y="369.99" width="33.51" height="20.11"/><rect class="cls-7" x="127.35" y="383.39" width="33.51" height="20.11"/><line class="cls-7" x1="127.35" y1="403.5" x2="150.81" y2="403.5"/><line class="cls-7" x1="115.62" y1="390.09" x2="127.35" y2="403.5"/><line class="cls-7" x1="149.13" y1="390.09" x2="160.86" y2="403.5"/><line class="cls-7" x1="149.13" y1="369.99" x2="160.86" y2="383.39"/><line class="cls-7" x1="115.62" y1="369.99" x2="127.35" y2="383.39"/><g class="cls-16"><path class="cls-10" d="m145.11,277.82c-1.59,0-3.13-.31-4.59-.92-1.4-.59-2.66-1.44-3.75-2.51-1.08-1.08-1.93-2.33-2.52-3.73-.61-1.45-.93-2.98-.93-4.57,0-1.58.31-3.12.93-4.57.59-1.4,1.44-2.65,2.52-3.73,1.08-1.08,2.34-1.92,3.75-2.51,1.45-.61,3-.92,4.59-.92,2.48,0,4.85.76,6.86,2.19.97.69,1.82,1.52,2.54,2.46.73.95,1.3,2.01,1.7,3.13.19.53-.09,1.11-.62,1.3-.53.19-1.12-.09-1.31-.62-.67-1.86-1.88-3.46-3.51-4.62-1.66-1.18-3.62-1.81-5.67-1.81-2.6,0-5.05,1.01-6.88,2.84-1.84,1.83-2.85,4.26-2.85,6.85,0,2.59,1.01,5.02,2.85,6.85,1.84,1.83,4.28,2.84,6.88,2.84,4.67,0,8.69-3.31,9.56-7.86.11-.55.64-.91,1.2-.81.56.11.92.64.81,1.19-1.06,5.51-5.93,9.51-11.57,9.51"/><polygon class="cls-10" points="157.51 261.28 155.87 266.09 152.51 262.28 157.51 261.28"/><path class="cls-10" d="m149.41,270.2c-.16,0-.32-.04-.46-.12l-4.3-2.5c-.28-.16-.45-.46-.45-.79v-7.69c0-.5.41-.91.92-.91s.92.41.92.91v7.17l3.84,2.23c.44.25.58.81.33,1.25-.17.29-.48.45-.79.45"/></g><rect class="cls-4" x="259.73" y="240.96" width="48.59" height="110.59" transform="translate(580.28 12.23) rotate(90)"/><text class="cls-17" transform="translate(29.77 141.83)"><tspan x="0" y="0">Base plate </tspan><tspan x="9.12" y="20.11">growth</tspan></text><text class="cls-17" transform="translate(36.8 255.78)"><tspan x="0" y="0">Natural</tspan><tspan x="-.63" y="20.11">Growth</tspan></text><g id="Layer_7"><path class="cls-3" d="m170.92,145.64c0-6.36-17.05-8.04-26.06-8.04s-26.06,1.68-26.06,8.04c0,.1.02.2.03.3h-.03v8.34h.03c.53,6.11,17.17,7.74,26.04,7.74s25.51-1.63,26.04-7.74h.03v-8.34h-.03c0-.1.03-.2.03-.3Zm-26.06-5.66c15.64,0,24.17,3.74,24.17,5.66,0,.79-1.47,1.89-4.26,2.91-5.79-1.97-14.37-2.61-19.91-2.61s-14.12.64-19.91,2.61c-2.79-1.02-4.26-2.12-4.26-2.91,0-1.92,8.53-5.66,24.17-5.66Zm24.17,8.97v1.72c-.42-.33-.86-.61-1.32-.86.46-.25.9-.54,1.32-.86h0Zm-8.72.86c-3.91.86-9.08,1.49-15.45,1.49s-11.54-.62-15.45-1.49c3.91-.86,9.08-1.49,15.45-1.49s11.54.62,15.45,1.49Zm-38.3,0c-.46.25-.9.54-1.32.86v-1.72c.42.33.86.61,1.32.86h0Zm22.85,9.83c-15.64,0-24.17-3.74-24.17-5.66,0-.79,1.47-1.89,4.26-2.91,5.79,1.97,14.37,2.61,19.91,2.61s14.12-.64,19.91-2.61c2.79,1.02,4.26,2.12,4.26,2.91,0,1.92-8.53,5.66-24.17,5.66Z"/></g><text class="cls-17" transform="translate(35.36 387.81)"><tspan x="0" y="0">Shaping</tspan></text><rect class="cls-9" x=".5" y="447.91" width="201.08" height="58.65" rx="14.39" ry="14.39"/><text class="cls-17" transform="translate(43.42 482.32)"><tspan x="0" y="0">Drying</tspan></text><text class="cls-17" transform="translate(241.43 240.61)"><tspan x="0" y="0">Fibers</tspan></text><text class="cls-17" transform="translate(235.93 301.58)"><tspan x="0" y="0">Particles</tspan></text><text class="cls-17" transform="translate(302.93 384.42)"><tspan x="0" y="0">CNC</tspan></text></svg>