<?xml version="1.0" encoding="utf-8"?>
<!-- Generator: Adobe Illustrator 16.0.0, SVG Export Plug-In . SVG Version: 6.00 Build 0)  -->
<!DOCTYPE svg PUBLIC "-//W3C//DTD SVG 1.1//EN" "http://www.w3.org/Graphics/SVG/1.1/DTD/svg11.dtd">
<svg version="1.1" id="outline" xmlns="http://www.w3.org/2000/svg" xmlns:xlink="http://www.w3.org/1999/xlink" x="0px" y="0px"
	 width="128px" height="128px" viewBox="0 0 128 128" enable-background="new 0 0 128 128" xml:space="preserve">
<g id="_1_13_">
	<path d="M109.5,39.45h-91c-2.071,0-3.75-1.679-3.75-3.75s1.679-3.75,3.75-3.75h91c2.07,0,3.75,1.679,3.75,3.75
		S111.57,39.45,109.5,39.45z"/>
	<path d="M109.5,67.75h-91c-2.071,0-3.75-1.679-3.75-3.75c0-2.07,1.679-3.75,3.75-3.75h91c2.07,0,3.75,1.68,3.75,3.75
		C113.25,66.071,111.57,67.75,109.5,67.75z"/>
	<path d="M109.5,96.05h-91c-2.071,0-3.75-1.68-3.75-3.75c0-2.071,1.679-3.75,3.75-3.75h91c2.07,0,3.75,1.679,3.75,3.75
		C113.25,94.371,111.57,96.05,109.5,96.05z"/>
</g>
</svg>
